<svg height="480pt" viewBox="-92 0 480 480" width="480pt" xmlns="http://www.w3.org/2000/svg"><path d="m120 200h-32c-4.417969 0-8 3.582031-8 8v16h16v-8h16v16h-24c-4.417969 0-8 3.582031-8 8v32c0 4.417969 3.582031 8 8 8h40v-16h-32v-16h24c4.417969 0 8-3.582031 8-8v-32c0-4.417969-3.582031-8-8-8zm0 0"/><path d="m176 232h-16v-32h-16v40c0 4.417969 3.582031 8 8 8h24v32h16v-80h-16zm0 0"/><path d="m136 128c-61.855469 0-112 50.144531-112 112s50.144531 112 112 112 112-50.144531 112-112c-.066406-61.828125-50.171875-111.933594-112-112zm0 208c-53.019531 0-96-42.980469-96-96s42.980469-96 96-96 96 42.980469 96 96c-.058594 52.996094-43.003906 95.941406-96 96zm0 0"/><path d="m280 216h-10.25c-4.648438-25.828125-16.695312-49.753906-34.671875-68.871094l-18.207031-133.289062c-1.101563-7.917969-7.863282-13.8164065-15.855469-13.839844h-130.03125c-7.992187.0234375-14.75 5.917969-15.855469 13.832031l-18.210937 133.296875c-49.222657 52.128906-49.222657 133.613282 0 185.742188l18.210937 133.289062c1.101563 7.917969 7.859375 13.816406 15.855469 13.839844h130.03125c7.992187-.023438 14.75-5.917969 15.855469-13.832031l18.207031-133.296875c17.976563-19.117188 30.023437-43.042969 34.671875-68.871094h10.25c8.835938 0 16-7.164062 16-16v-16c0-8.835938-7.164062-16-16-16zm-209.015625-200h130.03125l15.671875 114.777344c-47.867188-35.703125-113.507812-35.703125-161.375 0zm130.03125 448h-130.03125l-15.671875-114.777344c47.867188 35.703125 113.507812 35.703125 161.375 0zm-65.015625-104c-66.273438 0-120-53.726562-120-120s53.726562-120 120-120 120 53.726562 120 120c-.074219 66.242188-53.757812 119.925781-120 120zm144-112h-8.410156c.160156-2.664062.410156-5.296875.410156-8s-.25-5.335938-.410156-8h8.410156zm0 0"/><path d="m128 72h16v16h-16zm0 0"/><path d="m160 72h16v16h-16zm0 0"/><path d="m96 72h16v16h-16zm0 0"/><path d="m128 392h16v16h-16zm0 0"/><path d="m160 392h16v16h-16zm0 0"/><path d="m96 392h16v16h-16zm0 0"/></svg>