<svg width="10" height="12" xmlns="http://www.w3.org/2000/svg">

 <g>
  <title>background</title>
  <rect fill="none" id="canvas_background" height="14" width="12" y="-1" x="-1"/>
 </g>
 <g>
  <title>Layer 1</title>
  <path stroke="null" id="svg_1" d="m7.74152,3.749646q0,-0.813729 -0.5406,-1.318242t-1.422194,-0.504512l-2.661416,0l0,3.645508l2.661416,0q0.881594,0 1.422194,-0.504512t0.5406,-1.318242zm1.971111,0q0,1.570498 -1.052091,2.563248t-2.715476,0.99275l-2.827754,0l0,0.960201l4.200047,0q0.116437,0 0.191289,0.073236t0.074852,0.187158l0,1.041574q0,0.113922 -0.074852,0.187158t-0.191289,0.073236l-4.200047,0l0,1.562361q0,0.113922 -0.079011,0.187158t-0.187131,0.073236l-1.388926,0q-0.116437,0 -0.191289,-0.073236t-0.074852,-0.187158l0,-1.562361l-1.862991,0q-0.116437,0 -0.191289,-0.073236t-0.074852,-0.187158l0,-1.041574q0,-0.113922 0.074852,-0.187158t0.191289,-0.073236l1.862991,0l0,-0.960201l-1.862991,0q-0.116437,0 -0.191289,-0.073236t-0.074852,-0.187158l0,-1.212457q0,-0.105785 0.074852,-0.183089t0.191289,-0.077304l1.862991,0l0,-5.118358q0,-0.113922 0.074852,-0.187158t0.191289,-0.073236l4.482822,0q1.663385,0 2.715476,0.99275t1.052091,2.563248z"/>
 </g>
</svg>