<svg height="480pt" viewBox="-32 0 480 480.23349" width="480pt" xmlns="http://www.w3.org/2000/svg"><path d="m371.085938 142.984375 12.367187-12.367187c3.121094-3.125 3.121094-8.1875 0-11.3125l-22.640625-22.640626c-3.125-3.125-8.1875-3.125-11.3125 0l-12.367188 12.367188c-30.246093-24.054688-66.625-39.164062-105.015624-43.605469v-17.425781h8c8.835937 0 16-7.164062 16-16v-16c0-8.835938-7.164063-16-16-16h-64c-8.835938 0-16 7.164062-16 16v16c0 8.835938 7.164062 16 16 16h8v17.425781c-38.390626 4.441407-74.769532 19.550781-105.015626 43.605469l-12.367187-12.367188c-3.125-3.125-8.191406-3.125-11.3125 0l-22.640625 22.640626c-3.125 3.125-3.125 8.1875 0 11.3125l12.367188 12.367187c-67.546876 85.167969-58.121094 207.984375 21.628906 281.851563 79.75 73.863281 202.929687 73.863281 282.679687 0 79.75-73.867188 89.175781-196.683594 21.628907-281.851563zm-15.929688-29.382813 11.359375 11.359376-5.824219 5.832031c-3.628906-3.921875-7.410156-7.699219-11.335937-11.335938zm-179.039062-97.601562h64v16h-64zm24 32h16v16.199219c-2.65625-.09375-5.320313-.199219-8-.199219-2.679688 0-5.34375.105469-8 .199219zm-150.402344 76.960938 11.363281-11.359376 5.832031 5.824219c-3.921875 3.628907-7.699218 7.410157-11.335937 11.335938zm158.402344 339.039062c-106.039063 0-192-85.960938-192-192s85.960937-192 192-192c106.039062 0 192 85.960938 192 192-.125 105.988281-86.011719 191.875-192 192zm0 0"/><path d="m229.714844 282.28125c1.566406-3.203125 2.386718-6.71875 2.402344-10.28125 0-13.253906-10.746094-24-24-24-13.253907 0-24 10.746094-24 24s10.746093 24 24 24c3.5625-.015625 7.078124-.835938 10.28125-2.398438l48.0625 48.0625 11.3125-11.3125zm-29.597656-10.28125c0-4.417969 3.582031-8 8-8 4.417968 0 8 3.582031 8 8s-3.582032 8-8 8c-4.417969 0-8-3.582031-8-8zm0 0"/><path d="m200.117188 96h16v32h-16zm0 0"/><path d="m154.828125 104.074219 15.457031-4.140625 8.28125 30.910156-15.453125 4.140625zm0 0"/><path d="m113.191406 123.570312 13.855469-8 16 27.714844-13.855469 8zm0 0"/><path d="m78.007812 153.195312 11.3125-11.3125 22.632813 22.632813-11.3125 11.3125zm0 0"/><path d="m51.695312 190.933594 8-13.855469 27.710938 16-8 13.855469zm0 0"/><path d="m36.039062 234.167969 4.140626-15.453125 30.910156 8.28125-4.140625 15.453125zm0 0"/><path d="m32.117188 264h32v16h-32zm0 0"/><path d="m36.050781 309.828125 30.910157-8.285156 4.140624 15.457031-30.910156 8.28125zm0 0"/><path d="m51.695312 353.066406 27.714844-16 8 13.855469-27.714844 16.003906zm0 0"/><path d="m78.007812 390.800781 22.632813-22.632812 11.3125 11.3125-22.632813 22.632812zm0 0"/><path d="m113.1875 420.425781 16-27.714843 13.855469 8-15.996094 27.714843zm0 0"/><path d="m154.828125 439.929688 8.28125-30.910157 15.453125 4.144531-8.28125 30.90625zm0 0"/><path d="m200.117188 416h16v32h-16zm0 0"/><path d="m237.664062 413.167969 15.453126-4.140625 8.28125 30.910156-15.453126 4.140625zm0 0"/><path d="m273.191406 400.707031 13.855469-8.003906 16.003906 27.714844-13.859375 8zm0 0"/><path d="m304.28125 379.484375 11.316406-11.316406 22.632813 22.632812-11.316407 11.316407zm0 0"/><path d="m328.832031 350.925781 8-13.855469 27.710938 16.003907-8 13.855469zm0 0"/><path d="m345.144531 317.003906 4.140625-15.457031 30.910156 8.28125-4.140624 15.457031zm0 0"/><path d="m352.117188 264h32v16h-32zm0 0"/><path d="m345.144531 226.992188 30.90625-8.28125 4.144531 15.453124-30.910156 8.285157zm0 0"/><path d="m328.828125 193.066406 27.714844-16 8 13.855469-27.710938 16zm0 0"/><path d="m304.285156 164.519531 22.632813-22.636719 11.3125 11.316407-22.632813 22.632812zm0 0"/><path d="m273.191406 143.292969 15.996094-27.714844 13.859375 7.996094-16 27.714843zm0 0"/><path d="m237.667969 130.835938 8.285156-30.910157 15.453125 4.140625-8.28125 30.910156zm0 0"/></svg>