<svg width="10" height="11.999999999999998" xmlns="http://www.w3.org/2000/svg">

 <g>
  <title>background</title>
  <rect fill="none" id="canvas_background" height="14" width="12" y="-1" x="-1"/>
 </g>
 <g>
  <title>Layer 1</title>
  <path stroke="null" id="svg_1" d="m10.095299,9.898803q0,0.946115 -0.521021,1.494074t-1.384631,0.547959l-6.237976,0q-0.86361,0 -1.384631,-0.547959t-0.521021,-1.494074q0,-0.417868 0.02498,-0.816025t0.099922,-0.859388t0.189138,-0.855446t0.306903,-0.768719t0.442511,-0.638628t0.610237,-0.42181t0.795806,-0.157686q0.064235,0 0.299765,0.169512t0.531727,0.378446t0.770825,0.378446t0.952826,0.169512t0.952826,-0.169512t0.770825,-0.378446t0.531727,-0.378446t0.299765,-0.169512q0.435374,0 0.795806,0.157686t0.610237,0.42181t0.442511,0.638628t0.306903,0.768719t0.189138,0.855446t0.099922,0.859388t0.02498,0.816025zm-2.283927,-7.040676q0,1.253603 -0.802943,2.140586t-1.93777,0.886983t-1.93777,-0.886983t-0.802943,-2.140586t0.802943,-2.140586t1.93777,-0.886983t1.93777,0.886983t0.802943,2.140586z"/>
 </g>
</svg>